<svg xmlns="http://www.w3.org/2000/svg" xmlns:xlink="http://www.w3.org/1999/xlink">
    <symbol viewBox="0 0 16 16" id="icon-secure-payment">
      <path d="M8 8.15576C8.12432 8.15576 8.24355 8.20515 8.33146 8.29306C8.41936 8.38096 8.46875 8.50019 8.46875 8.62451V10.4995C8.46875 10.6238 8.41936 10.7431 8.33146 10.831C8.24355 10.9189 8.12432 10.9683 8 10.9683C7.87568 10.9683 7.75645 10.9189 7.66854 10.831C7.58064 10.7431 7.53125 10.6238 7.53125 10.4995V8.62451C7.53125 8.50019 7.58064 8.38096 7.66854 8.29306C7.75645 8.20515 7.87568 8.15576 8 8.15576Z" fill="#222529"></path>
      <path fill-rule="evenodd" clip-rule="evenodd" d="M5.34277 5.65576V4.99951C5.34277 3.59764 6.57215 2.53076 7.99902 2.53076C9.4259 2.53076 10.6553 3.59764 10.6553 4.99951V5.65576H10.8115C11.3502 5.65576 11.8669 5.86977 12.2478 6.2507C12.6288 6.63163 12.8428 7.14829 12.8428 7.68701V11.437C12.8428 11.9757 12.6288 12.4924 12.2478 12.8733C11.8669 13.2543 11.3502 13.4683 10.8115 13.4683H5.18652C4.6478 13.4683 4.13115 13.2543 3.75021 12.8733C3.36928 12.4924 3.15527 11.9757 3.15527 11.437V7.68701C3.15527 7.14829 3.36928 6.63163 3.75021 6.2507C4.13115 5.86977 4.6478 5.65576 5.18652 5.65576H5.34277ZM6.28027 4.99951C6.28027 4.19264 7.00902 3.46826 7.99902 3.46826C8.98902 3.46826 9.71777 4.19264 9.71777 4.99951V5.65576H6.28027V4.99951ZM10.8115 6.59326C11.1016 6.59326 11.3798 6.7085 11.5849 6.91361C11.79 7.11873 11.9053 7.39693 11.9053 7.68701V11.437C11.9053 11.7271 11.79 12.0053 11.5849 12.2104C11.3798 12.4155 11.1016 12.5308 10.8115 12.5308H5.18652C4.89644 12.5308 4.61824 12.4155 4.41313 12.2104C4.20801 12.0053 4.09277 11.7271 4.09277 11.437V7.68701C4.09277 7.39693 4.20801 7.11873 4.41313 6.91361C4.61824 6.7085 4.89644 6.59326 5.18652 6.59326H10.8115Z" fill="#222529"></path>
    </symbol>

    <symbol viewBox="0 0 36 20" id="icon-cb">
      <g clip-path="url(#clip0_3990_1704)">

          <path d="M26.1504 4H9.86035V16H26.1504V4Z" fill="url(#paint0_linear_3990_1704)"></path>
          <path d="M14.86 9.73019H18.35C18.3597 9.38612 18.299 9.0437 18.1718 8.72389C18.0446 8.40407 17.8534 8.11358 17.61 7.87019C16.7976 7.33232 15.8326 7.07264 14.86 7.13019C13.8594 7.06739 12.8675 7.34977 12.05 7.93019C11.8076 8.20042 11.6224 8.51692 11.5055 8.86064C11.3886 9.20436 11.3425 9.56818 11.37 9.93019C11.3516 10.3289 11.4168 10.7271 11.5614 11.0991C11.7061 11.4711 11.927 11.8087 12.21 12.0902C12.9908 12.6112 13.9243 12.8543 14.86 12.7802C15.7934 12.8437 16.7225 12.6053 17.51 12.1002C17.7909 11.8297 18.0111 11.5026 18.1559 11.1405C18.3007 10.7785 18.3669 10.3898 18.35 10.0002H14.86V9.73019Z" fill="white"></path>
          <path d="M18.5801 10V12.72H23.4401C23.7841 12.7021 24.1083 12.5534 24.3463 12.3043C24.5843 12.0552 24.718 11.7245 24.7201 11.38C24.721 11.0307 24.5894 10.694 24.3519 10.4379C24.1143 10.1818 23.7885 10.0253 23.4401 10H18.5801Z" fill="white"></path>
          <path d="M24.6301 8.49023C24.6314 8.32656 24.6003 8.16424 24.5386 8.01264C24.4768 7.86104 24.3857 7.72316 24.2704 7.60695C24.1552 7.49074 24.018 7.39851 23.8669 7.33557C23.7158 7.27263 23.5538 7.24023 23.3901 7.24023H18.5801V9.73023H23.4801C23.7923 9.70518 24.0836 9.56386 24.2966 9.33424C24.5096 9.10461 24.6286 8.80341 24.6301 8.49023Z" fill="white"></path>
      </g>
      <defs>
          <linearGradient id="paint0_linear_3990_1704" x1="19.4761" y1="4.96" x2="19.4761" y2="17.11" gradientUnits="userSpaceOnUse">
              <stop stop-color="#1A1F46"></stop>
              <stop offset="0.35" stop-color="#1A1F46"></stop>
              <stop offset="0.47" stop-color="#2B4A83"></stop>
              <stop offset="0.55" stop-color="#3564A8"></stop>
              <stop offset="0.61" stop-color="#3464A4"></stop>
              <stop offset="0.66" stop-color="#326499"></stop>
              <stop offset="0.71" stop-color="#2F6386"></stop>
              <stop offset="0.77" stop-color="#2A636B"></stop>
              <stop offset="0.82" stop-color="#246248"></stop>
              <stop offset="0.85" stop-color="#206230"></stop>
              <stop offset="1" stop-color="#206230"></stop>
          </linearGradient>
          <clipPath id="clip0_3990_1704">
              <rect width="36" height="20" fill="white"></rect>
          </clipPath>
      </defs>
    </symbol>

    <symbol viewBox="0 0 36 20" id="icon-visa">
      <g clip-path="url(#clip0_3990_1713)">

          <path d="M16.3496 13.8801H14.3496L15.5996 6.14014H17.5996L16.3496 13.8801Z" fill="#1A1F71"></path>
          <path d="M23.6096 6.33019C23.0361 6.10673 22.4251 5.99473 21.8096 6.00019C19.8096 6.00019 18.4496 7.00019 18.4396 8.56019C18.4396 9.67019 19.4396 10.2902 20.1896 10.6602C20.9396 11.0302 21.1896 11.2902 21.1896 11.6602C21.1896 12.1802 20.5596 12.4202 19.9896 12.4202C19.3516 12.429 18.7207 12.285 18.1496 12.0002L17.8796 11.8802L17.5996 13.6202C18.3149 13.8927 19.0742 14.0316 19.8396 14.0302C21.9396 14.0302 23.3096 13.0302 23.3196 11.3902C23.3196 10.5002 22.7996 9.83019 21.6396 9.28019C20.9396 8.92019 20.5096 8.68019 20.5096 8.28019C20.5096 7.88019 20.8796 7.61019 21.6696 7.61019C22.1825 7.59751 22.6916 7.70002 23.1596 7.91019L23.3396 7.99019L23.6096 6.32019V6.33019Z" fill="#1A1F71"></path>
          <path d="M26.2704 11.1404C26.4404 10.7004 27.0704 8.97037 27.0704 8.97037C27.0704 8.97037 27.2404 8.52037 27.3404 8.23037L27.4804 8.90037C27.4804 8.90037 27.8504 10.7504 27.9404 11.1404H26.2704ZM28.7404 6.14037H27.2004C26.9791 6.11486 26.7556 6.16397 26.5654 6.27991C26.3752 6.39585 26.2291 6.57198 26.1504 6.78037L23.1504 13.8804H25.2604C25.2604 13.8804 25.6004 12.8804 25.6804 12.7204H28.2504C28.3004 12.9904 28.4904 13.8804 28.4904 13.8804H30.3404L28.7404 6.14037Z" fill="#1A1F71"></path>
          <path d="M12.6799 6.14001L10.6799 11.42L10.4599 10.35L9.79992 6.79001C9.75664 6.58966 9.64076 6.4124 9.47459 6.29239C9.30842 6.17238 9.10372 6.1181 8.89992 6.14001H5.66992V6.30001C6.4067 6.48229 7.11379 6.76849 7.76992 7.15001L9.55992 13.88H11.6799L14.8199 6.14001H12.6799Z" fill="#1A1F71"></path>
      </g>
      <defs>
          <clipPath id="clip0_3990_1713">
              <rect width="36" height="20" fill="white"></rect>
          </clipPath>
      </defs>
    </symbol>

    <symbol viewBox="0 0 36 20" id="icon-mastercard">
      <g clip-path="url(#clip0_3990_1722)">
          <path d="M13.07 16.0002V15.2102C13.0759 15.1426 13.0672 15.0745 13.0443 15.0106C13.0214 14.9467 12.9849 14.8885 12.9374 14.8401C12.8899 14.7916 12.8325 14.754 12.769 14.7299C12.7056 14.7057 12.6377 14.6956 12.57 14.7002C12.4818 14.698 12.3944 14.7179 12.3158 14.7581C12.2372 14.7983 12.1699 14.8574 12.12 14.9302C12.0771 14.8554 12.014 14.7942 11.938 14.7535C11.862 14.7129 11.776 14.6944 11.69 14.7002C11.6173 14.698 11.5452 14.7143 11.4805 14.7475C11.4158 14.7807 11.3606 14.8298 11.32 14.8902V14.7002H11V16.0002H11.28V15.3002C11.28 15.0702 11.4 14.9702 11.59 14.9702C11.78 14.9702 11.87 15.0902 11.87 15.3002V16.0002H12.14V15.3002C12.1339 15.2572 12.1375 15.2133 12.1506 15.1718C12.1637 15.1304 12.186 15.0924 12.2157 15.0607C12.2455 15.029 12.282 15.0045 12.3226 14.9888C12.3631 14.9731 12.4067 14.9668 12.45 14.9702C12.63 14.9702 12.73 15.0902 12.73 15.3002V16.0002H13.07ZM17.2 14.7002H16.75V14.3102H16.47V14.7002H16.22V15.0002H16.47V15.5902C16.47 15.8802 16.59 16.0502 16.91 16.0502C17.0319 16.0466 17.1515 16.0159 17.26 15.9602L17.18 15.7202C17.1068 15.7613 17.0239 15.782 16.94 15.7802C16.8 15.7802 16.75 15.7002 16.75 15.5702V15.0002H17.2V14.7002ZM19.57 14.7002C19.5016 14.6993 19.4343 14.7164 19.3746 14.7497C19.3149 14.7831 19.265 14.8315 19.23 14.8902V14.7002H19V16.0002H19.27V15.2802C19.27 15.0702 19.37 14.9502 19.54 14.9502H19.71L19.79 14.6802L19.57 14.7002ZM16 14.8002C15.8417 14.7104 15.6619 14.6654 15.48 14.6702C15.16 14.6702 14.95 14.8302 14.95 15.0802C14.95 15.3302 15.11 15.4202 15.39 15.4502H15.52C15.66 15.4502 15.74 15.5102 15.74 15.5802C15.74 15.6502 15.64 15.7402 15.45 15.7402C15.3003 15.7386 15.1544 15.6934 15.03 15.6102L14.89 15.8202C15.0522 15.9294 15.2445 15.9854 15.44 15.9802C15.81 15.9802 16.02 15.8102 16.02 15.5702C16.02 15.3302 15.85 15.2202 15.58 15.1802H15.45C15.33 15.1802 15.24 15.1802 15.24 15.0602C15.24 14.9402 15.33 14.9102 15.48 14.9102C15.6196 14.9185 15.7558 14.956 15.88 15.0202L16 14.8002ZM23.4 14.6702C23.3329 14.669 23.2668 14.686 23.2087 14.7195C23.1506 14.753 23.1026 14.8016 23.07 14.8602V14.7002H22.79V16.0002H23.07V15.2802C23.07 15.0702 23.16 14.9502 23.34 14.9502H23.51L23.59 14.6902C23.527 14.6804 23.463 14.6804 23.4 14.6902V14.6702ZM19.84 15.3402C19.837 15.4294 19.8528 15.5182 19.8861 15.601C19.9195 15.6837 19.9699 15.7586 20.0339 15.8207C20.0979 15.8829 20.1743 15.9309 20.258 15.9619C20.3417 15.9928 20.4309 16.0058 20.52 16.0002C20.6838 16.0107 20.8453 15.9569 20.97 15.8502L20.84 15.6302C20.7464 15.7058 20.6303 15.7481 20.51 15.7502C20.4566 15.7518 20.4035 15.7421 20.3542 15.7218C20.3048 15.7014 20.2603 15.6709 20.2235 15.6323C20.1867 15.5936 20.1584 15.5476 20.1406 15.4973C20.1228 15.4469 20.1158 15.3934 20.12 15.3402C20.1173 15.2873 20.1254 15.2345 20.1437 15.1848C20.1621 15.1352 20.1904 15.0898 20.2269 15.0514C20.2634 15.013 20.3073 14.9825 20.356 14.9617C20.4047 14.9408 20.4571 14.9301 20.51 14.9302C20.6286 14.9329 20.7436 14.9712 20.84 15.0402L20.97 14.8202C20.8453 14.7135 20.6838 14.6597 20.52 14.6702C20.4301 14.6645 20.3399 14.6778 20.2555 14.7093C20.1711 14.7408 20.0942 14.7898 20.0301 14.853C19.9659 14.9163 19.9157 14.9923 19.883 15.0763C19.8502 15.1603 19.8356 15.2502 19.84 15.3402ZM22.42 15.3402V14.7002H22.14V14.8602C22.0941 14.7981 22.0335 14.7483 21.9638 14.7151C21.894 14.682 21.8172 14.6666 21.74 14.6702C21.5777 14.6901 21.4282 14.7688 21.3199 14.8913C21.2115 15.0138 21.1517 15.1716 21.1517 15.3352C21.1517 15.4987 21.2115 15.6566 21.3199 15.7791C21.4282 15.9016 21.5777 15.9803 21.74 16.0002C21.8174 16.0057 21.8949 15.9911 21.965 15.9578C22.0351 15.9245 22.0954 15.8737 22.14 15.8102V16.0002H22.42V15.3702V15.3402ZM21.42 15.3402C21.4159 15.2878 21.4226 15.2352 21.4398 15.1855C21.4571 15.1359 21.4844 15.0904 21.5201 15.0519C21.5558 15.0134 21.5991 14.9826 21.6473 14.9617C21.6955 14.9408 21.7475 14.93 21.8 14.9302C21.8534 14.9286 21.9065 14.9383 21.9558 14.9586C22.0052 14.979 22.0497 15.0094 22.0865 15.0481C22.1233 15.0868 22.1516 15.1328 22.1694 15.1831C22.1872 15.2335 22.1942 15.287 22.19 15.3402C22.199 15.396 22.1958 15.453 22.1806 15.5074C22.1654 15.5618 22.1386 15.6122 22.102 15.6553C22.0654 15.6983 22.0198 15.7328 21.9686 15.7565C21.9173 15.7802 21.8615 15.7924 21.805 15.7924C21.7485 15.7924 21.6927 15.7802 21.6414 15.7565C21.5902 15.7328 21.5446 15.6983 21.508 15.6553C21.4714 15.6122 21.4446 15.5618 21.4294 15.5074C21.4142 15.453 21.411 15.396 21.42 15.3402ZM18.09 14.6702C17.9277 14.6901 17.7782 14.7688 17.6699 14.8913C17.5615 15.0138 17.5017 15.1716 17.5017 15.3352C17.5017 15.4987 17.5615 15.6566 17.6699 15.7791C17.7782 15.9016 17.9277 15.9803 18.09 16.0002C18.2778 16.0056 18.4616 15.9455 18.61 15.8302L18.48 15.6302C18.3702 15.7126 18.2372 15.7581 18.1 15.7602C18.0092 15.7661 17.9195 15.7374 17.8491 15.6799C17.7786 15.6224 17.7324 15.5403 17.72 15.4502H18.66V15.3502C18.6729 15.2664 18.6677 15.1807 18.6445 15.0991C18.6213 15.0175 18.5808 14.9419 18.5258 14.8773C18.4707 14.8128 18.4024 14.7609 18.3255 14.7251C18.2486 14.6894 18.1648 14.6706 18.08 14.6702H18.09ZM18.09 14.9102C18.1732 14.9102 18.2531 14.9425 18.3128 15.0004C18.3725 15.0582 18.4074 15.1371 18.41 15.2202H17.74C17.7476 15.1336 17.7882 15.0531 17.8533 14.9955C17.9184 14.9378 18.0031 14.9073 18.09 14.9102ZM25 15.3402V14.2002H24.7V14.8602C24.6541 14.7981 24.5935 14.7483 24.5238 14.7151C24.454 14.682 24.3772 14.6666 24.3 14.6702C24.1377 14.6901 23.9882 14.7688 23.8799 14.8913C23.7715 15.0138 23.7117 15.1716 23.7117 15.3352C23.7117 15.4987 23.7715 15.6566 23.8799 15.7791C23.9882 15.9016 24.1377 15.9803 24.3 16.0002C24.3774 16.0057 24.4549 15.9911 24.525 15.9578C24.5951 15.9245 24.6554 15.8737 24.7 15.8102V16.0002H25V15.3702V15.3402ZM24 15.3402C23.991 15.2844 23.9942 15.2274 24.0094 15.173C24.0246 15.1186 24.0514 15.0681 24.088 15.0251C24.1246 14.9821 24.1702 14.9476 24.2214 14.9239C24.2727 14.9002 24.3285 14.8879 24.385 14.8879C24.4415 14.8879 24.4973 14.9002 24.5486 14.9239C24.5998 14.9476 24.6454 14.9821 24.682 15.0251C24.7186 15.0681 24.7454 15.1186 24.7606 15.173C24.7758 15.2274 24.779 15.2844 24.77 15.3402C24.7713 15.3927 24.7623 15.445 24.7434 15.494C24.7245 15.5431 24.6962 15.5879 24.66 15.626C24.6237 15.6641 24.5804 15.6946 24.5323 15.716C24.4843 15.7373 24.4325 15.7489 24.38 15.7502C24.2757 15.745 24.1775 15.6992 24.1065 15.6226C24.0355 15.546 23.9973 15.4446 24 15.3402ZM14.68 15.3402V14.7002H14.4V14.8602C14.3541 14.7981 14.2935 14.7483 14.2238 14.7151C14.154 14.682 14.0772 14.6666 14 14.6702C13.8377 14.6901 13.6882 14.7688 13.5799 14.8913C13.4715 15.0138 13.4117 15.1716 13.4117 15.3352C13.4117 15.4987 13.4715 15.6566 13.5799 15.7791C13.6882 15.9016 13.8377 15.9803 14 16.0002C14.0774 16.0057 14.1549 15.9911 14.225 15.9578C14.2951 15.9245 14.3554 15.8737 14.4 15.8102V16.0002H14.68V15.3702V15.3402ZM13.68 15.3402C13.6759 15.2878 13.6826 15.2352 13.6998 15.1855C13.7171 15.1359 13.7444 15.0904 13.7801 15.0519C13.8158 15.0134 13.8591 14.9826 13.9073 14.9617C13.9555 14.9408 14.0075 14.93 14.06 14.9302C14.1134 14.9286 14.1665 14.9383 14.2158 14.9586C14.2652 14.979 14.3097 15.0094 14.3465 15.0481C14.3833 15.0868 14.4116 15.1328 14.4294 15.1831C14.4472 15.2335 14.4542 15.287 14.45 15.3402C14.459 15.396 14.4558 15.453 14.4406 15.5074C14.4254 15.5618 14.3986 15.6122 14.362 15.6553C14.3254 15.6983 14.2798 15.7328 14.2286 15.7565C14.1773 15.7802 14.1215 15.7924 14.065 15.7924C14.0085 15.7924 13.9527 15.7802 13.9014 15.7565C13.8502 15.7328 13.8046 15.6983 13.768 15.6553C13.7314 15.6122 13.7046 15.5618 13.6894 15.5074C13.6742 15.453 13.671 15.396 13.68 15.3402Z" fill="#222529"></path>
          <path d="M15.9004 5.02002H20.0804V12.53H15.9004V5.02002Z" fill="#FF5A00"></path>
          <path d="M16.18 8.77998C16.1781 8.05337 16.3409 7.33578 16.6561 6.6811C16.9713 6.02642 17.4308 5.45166 18 4.99998C17.4006 4.52954 16.6975 4.20919 15.9493 4.06562C15.201 3.92204 14.4293 3.95942 13.6984 4.17462C12.9676 4.38982 12.2987 4.77661 11.7476 5.30276C11.1966 5.8289 10.7793 6.47915 10.5305 7.1993C10.2818 7.91945 10.2087 8.68863 10.3176 9.44272C10.4264 10.1968 10.7139 10.914 11.1561 11.5344C11.5983 12.1548 12.1825 12.6606 12.8598 13.0094C13.5371 13.3583 14.2881 13.5402 15.05 13.54C16.1179 13.5485 17.1574 13.1961 18 12.54C17.4312 12.0924 16.9718 11.5212 16.6565 10.8698C16.3412 10.2184 16.1782 9.50372 16.18 8.77998Z" fill="#EB001B"></path>
          <path d="M25.73 8.77986C25.7318 9.67702 25.4805 10.5565 25.0051 11.3173C24.5296 12.0781 23.8492 12.6894 23.042 13.081C22.2348 13.4726 21.3335 13.6286 20.4417 13.5311C19.5498 13.4336 18.7035 13.0866 18 12.5299C18.568 12.0838 19.027 11.5144 19.3423 10.8647C19.6576 10.215 19.821 9.50203 19.82 8.77986C19.8218 8.05324 19.6591 7.33565 19.3438 6.68097C19.0286 6.02629 18.5692 5.45153 18 4.99986C18.7053 4.44664 19.552 4.10291 20.4433 4.00789C21.3347 3.91287 22.2348 4.0704 23.0408 4.4625C23.8469 4.85459 24.5265 5.46545 25.002 6.22532C25.4775 6.9852 25.7298 7.86347 25.73 8.75986V8.77986Z" fill="#F79E1B"></path>
      </g>
      <defs>
          <clipPath id="clip0_3990_1722">
              <rect width="36" height="20" fill="white"></rect>
          </clipPath>
      </defs>
    </symbol>

    <symbol viewBox="0 0 36 20" id="icon-paypal">
      <g clip-path="url(#clip0_3990_1730)">
          <path d="M7.35959 6.27001H5.17959C5.10707 6.27141 5.03733 6.29819 4.98251 6.34569C4.9277 6.3932 4.89128 6.45842 4.87959 6.53001L3.99959 12.11C3.99519 12.136 3.99656 12.1627 4.00362 12.1881C4.01067 12.2136 4.02323 12.2371 4.0404 12.2572C4.05758 12.2772 4.07895 12.2932 4.103 12.3041C4.12706 12.3149 4.1532 12.3204 4.17959 12.32H5.17959C5.25269 12.3207 5.32351 12.2946 5.37875 12.2467C5.43399 12.1989 5.46985 12.1325 5.47959 12.06L5.71959 10.56C5.72933 10.4876 5.76519 10.4212 5.82043 10.3733C5.87568 10.3254 5.94649 10.2994 6.01959 10.3H6.70959C7.01255 10.3389 7.32026 10.3154 7.6138 10.231C7.90735 10.1466 8.18053 10.003 8.41656 9.80914C8.65258 9.61527 8.84646 9.37517 8.98628 9.10361C9.12609 8.83204 9.20889 8.53475 9.22959 8.23001C9.29434 7.99386 9.30732 7.7465 9.26762 7.50487C9.22792 7.26324 9.1365 7.03304 8.99959 6.83001C8.78573 6.61965 8.52728 6.4601 8.24339 6.36316C7.95951 6.26622 7.65745 6.23439 7.35959 6.27001ZM7.60959 8.27001C7.48959 9.05001 6.89959 9.05001 6.31959 9.05001H5.99959L6.22959 7.59001C6.23463 7.5467 6.25612 7.50697 6.28962 7.47905C6.32312 7.45113 6.36607 7.43716 6.40959 7.44001H6.55959C6.94959 7.44001 7.31959 7.44001 7.55959 7.66001C7.61496 7.75811 7.64814 7.86715 7.65677 7.97946C7.66541 8.09177 7.64931 8.20461 7.60959 8.31001V8.27001ZM13.8696 8.28001H12.8696C12.8251 8.27974 12.7821 8.29593 12.7489 8.32548C12.7157 8.35502 12.6945 8.39582 12.6896 8.44001L12.6396 8.73001L12.5696 8.62001C12.4097 8.46105 12.2162 8.33992 12.0034 8.26551C11.7905 8.19111 11.5637 8.16531 11.3396 8.19001C10.7631 8.19752 10.2087 8.4132 9.77863 8.79729C9.3486 9.18138 9.07192 9.70798 8.99959 10.28C8.94581 10.5607 8.95279 10.8496 9.02006 11.1273C9.08734 11.405 9.21334 11.6651 9.38959 11.89C9.55418 12.071 9.75739 12.2126 9.98417 12.3044C10.2109 12.3961 10.4555 12.4356 10.6996 12.42C10.9676 12.4216 11.2331 12.3693 11.4805 12.2662C11.7279 12.1631 11.952 12.0114 12.1396 11.82V12.11C12.1352 12.136 12.1366 12.1627 12.1436 12.1881C12.1507 12.2136 12.1632 12.2371 12.1804 12.2572C12.1976 12.2772 12.2189 12.2932 12.243 12.3041C12.2671 12.3149 12.2932 12.3204 12.3196 12.32H13.2596C13.3321 12.3186 13.4019 12.2918 13.4567 12.2443C13.5115 12.1968 13.5479 12.1316 13.5596 12.06L14.1196 8.49001C14.1285 8.45689 14.1278 8.4219 14.1176 8.38917C14.1073 8.35643 14.0879 8.32732 14.0616 8.30525C14.0353 8.28318 14.0033 8.26908 13.9693 8.26461C13.9353 8.26014 13.9007 8.26548 13.8696 8.28001ZM12.4196 10.28C12.3783 10.5617 12.2356 10.8187 12.0184 11.0028C11.8012 11.1869 11.5243 11.2855 11.2396 11.28C11.1105 11.2941 10.98 11.2765 10.8592 11.2288C10.7384 11.1811 10.6311 11.1048 10.5464 11.0063C10.4617 10.9079 10.4023 10.7903 10.3733 10.6638C10.3442 10.5372 10.3464 10.4055 10.3796 10.28C10.4185 10.0009 10.5576 9.7454 10.7711 9.56136C10.9846 9.37733 11.2578 9.27732 11.5396 9.28001C11.6705 9.27316 11.8013 9.29564 11.9224 9.34582C12.0435 9.39599 12.1519 9.47259 12.2396 9.57001C12.3219 9.6727 12.3806 9.79218 12.4117 9.92004C12.4428 10.0479 12.4455 10.181 12.4196 10.31V10.28ZM19.4196 8.28001H18.4196C18.3694 8.2797 18.3199 8.29244 18.2761 8.31698C18.2323 8.34152 18.1956 8.37703 18.1696 8.42001L16.7196 10.55L16.0696 8.50001C16.0506 8.43745 16.0124 8.38248 15.9603 8.34297C15.9082 8.30345 15.845 8.28142 15.7796 8.28001H14.7796C14.7508 8.27997 14.7224 8.28684 14.6967 8.30006C14.6711 8.31328 14.6491 8.33245 14.6324 8.35597C14.6158 8.37949 14.605 8.40666 14.601 8.43521C14.597 8.46376 14.6 8.49284 14.6096 8.52001L15.7596 11.91L14.6696 13.44C14.6522 13.468 14.6424 13.5 14.6411 13.5328C14.6398 13.5657 14.6471 13.5984 14.6622 13.6276C14.6773 13.6569 14.6998 13.6817 14.7274 13.6996C14.7549 13.7176 14.7867 13.728 14.8196 13.73H15.8696C15.9186 13.7296 15.9668 13.7177 16.0102 13.6951C16.0537 13.6725 16.0912 13.6399 16.1196 13.6L19.5996 8.60001C19.642 8.57614 19.6732 8.53639 19.6864 8.48951C19.6995 8.44263 19.6935 8.39245 19.6696 8.35001C19.6457 8.30758 19.606 8.27636 19.5591 8.26324C19.5122 8.25011 19.462 8.25614 19.4196 8.28001Z" fill="#253B80"></path>
          <path d="M22.8896 6.27003H20.7196C20.6465 6.26937 20.5757 6.29543 20.5205 6.34331C20.4652 6.39118 20.4294 6.45758 20.4196 6.53003L19.5396 12.11C19.5352 12.136 19.5366 12.1627 19.5437 12.1881C19.5507 12.2136 19.5633 12.2371 19.5804 12.2572C19.5976 12.2772 19.619 12.2932 19.643 12.3041C19.6671 12.315 19.6932 12.3204 19.7196 12.32H20.8296C20.8805 12.3205 20.9298 12.3026 20.9684 12.2695C21.0071 12.2364 21.0324 12.1904 21.0396 12.14L21.2896 10.56C21.3013 10.4884 21.3377 10.4232 21.3926 10.3757C21.4474 10.3282 21.5171 10.3014 21.5896 10.3H22.2796C22.5795 10.3331 22.8829 10.3052 23.1718 10.2181C23.4606 10.131 23.7289 9.98651 23.9605 9.7932C24.1921 9.59988 24.3823 9.36178 24.5196 9.09316C24.6569 8.82455 24.7386 8.53097 24.7596 8.23003C24.8201 7.99054 24.8263 7.74058 24.7778 7.49839C24.7294 7.25619 24.6275 7.02785 24.4796 6.83003C24.2713 6.62657 24.0211 6.47105 23.7465 6.37432C23.4719 6.2776 23.1794 6.242 22.8896 6.27003ZM23.1496 8.27003C23.0296 9.05003 22.4296 9.05003 21.8496 9.05003H21.5196L21.7496 7.59003C21.7568 7.54765 21.7789 7.50924 21.8119 7.48173C21.8449 7.45422 21.8867 7.43943 21.9296 7.44003H22.0796C22.4796 7.44003 22.8496 7.44003 23.0796 7.66003C23.1389 7.75634 23.176 7.86466 23.1881 7.97711C23.2002 8.08956 23.1871 8.2033 23.1496 8.31003V8.27003ZM29.3996 8.28003H28.3996C28.3558 8.28179 28.3139 8.2987 28.281 8.32787C28.2482 8.35703 28.2265 8.39667 28.2196 8.44003V8.73003L28.1396 8.62003C27.9801 8.46047 27.7867 8.33894 27.5738 8.2645C27.3608 8.19005 27.1338 8.16459 26.9096 8.19003C26.336 8.20401 25.7863 8.42218 25.3592 8.80529C24.9321 9.18841 24.6556 9.71133 24.5796 10.28C24.5258 10.5607 24.5328 10.8496 24.6001 11.1273C24.6674 11.405 24.7934 11.6651 24.9696 11.89C25.1362 12.0712 25.3412 12.2129 25.5696 12.3046C25.798 12.3963 26.044 12.4357 26.2896 12.42C26.5576 12.4216 26.8232 12.3693 27.0705 12.2662C27.3179 12.1631 27.542 12.0114 27.7296 11.82V12.11C27.7252 12.136 27.7266 12.1627 27.7337 12.1881C27.7407 12.2136 27.7533 12.2371 27.7704 12.2572C27.7876 12.2772 27.809 12.2932 27.833 12.3041C27.8571 12.315 27.8832 12.3204 27.9096 12.32H28.8496C28.9227 12.3207 28.9935 12.2946 29.0488 12.2467C29.104 12.1989 29.1399 12.1325 29.1496 12.06L29.7096 8.49003C29.7234 8.46967 29.7331 8.4468 29.738 8.42272C29.743 8.39864 29.7431 8.37381 29.7385 8.34967C29.7338 8.32553 29.7245 8.30254 29.711 8.28201C29.6974 8.26148 29.68 8.24381 29.6596 8.23003C29.6393 8.21624 29.6164 8.20659 29.5923 8.20164C29.5682 8.19669 29.5434 8.19654 29.5193 8.20118C29.4951 8.20582 29.4721 8.21517 29.4516 8.2287C29.4311 8.24223 29.4134 8.25967 29.3996 8.28003ZM27.9496 10.28C27.9104 10.5627 27.7683 10.8209 27.5506 11.0054C27.3329 11.1899 27.0549 11.2877 26.7696 11.28C26.6396 11.2867 26.5097 11.2652 26.3889 11.2169C26.268 11.1685 26.1591 11.0945 26.0696 11C25.9916 10.8972 25.9369 10.7787 25.9093 10.6526C25.8817 10.5266 25.8818 10.396 25.9096 10.27C25.9507 9.99003 26.0919 9.73443 26.307 9.55056C26.5222 9.36669 26.7967 9.26703 27.0796 9.27003C27.2091 9.2625 27.3387 9.28473 27.4583 9.33499C27.5779 9.38526 27.6844 9.46224 27.7696 9.56003C27.864 9.6583 27.934 9.77736 27.974 9.90763C28.0139 10.0379 28.0227 10.1757 27.9996 10.31L27.9496 10.28ZM30.6296 6.42003L29.7396 12.11C29.7352 12.136 29.7366 12.1627 29.7437 12.1881C29.7507 12.2136 29.7633 12.2371 29.7804 12.2572C29.7976 12.2772 29.819 12.2932 29.843 12.3041C29.8671 12.315 29.8932 12.3204 29.9196 12.32H30.8196C30.8922 12.3186 30.9619 12.2919 31.0167 12.2443C31.0715 12.1968 31.1079 12.1316 31.1196 12.06L31.9996 6.48003C32.004 6.45401 32.0027 6.42733 31.9956 6.4019C31.9885 6.37647 31.976 6.3529 31.9588 6.33287C31.9416 6.31283 31.9203 6.29681 31.8962 6.28595C31.8722 6.27509 31.846 6.26966 31.8196 6.27003H30.8196C30.775 6.26693 30.7308 6.28058 30.6956 6.30832C30.6605 6.33605 30.637 6.37588 30.6296 6.42003Z" fill="#179BD7"></path>
      </g>
      <defs>
          <clipPath id="clip0_3990_1730">
              <rect width="36" height="20" fill="white"></rect>
          </clipPath>
      </defs>
    </symbol>

    <symbol viewBox="0 0 55 20" id="icon-mandat">
      <g clip-path="url(#clip0_3990_1736)">
          <rect x="3.33789" y="5.42285" width="3.03637" height="3.03621" rx="0.953573" fill="#576FB4"></rect>
          <path d="M13.1034 3.42188H11.6256C11.099 3.42188 10.6721 3.8488 10.6721 4.37545V5.60518C10.6721 5.74674 10.6405 5.88652 10.5798 6.01438L10.2514 6.70567C10.2262 6.75863 10.1969 6.80978 10.1594 6.85486C9.90683 7.15858 9.5312 7.33608 9.13314 7.33608H5.81756C5.08026 7.33608 4.48256 7.93378 4.48256 8.67108V11.6971C4.48256 12.4344 5.08026 13.0321 5.81756 13.0321H9.57883C10.3161 13.0321 10.9138 12.4344 10.9138 11.6971V10.3169V8.06112C10.9138 7.95464 10.9266 7.84854 10.9518 7.74508L11.1439 7.14043C11.2667 6.75378 11.6208 6.48718 12.0263 6.47596L13.1297 6.44542C13.6459 6.43113 14.0569 6.00858 14.0569 5.49221V4.37545C14.0569 3.8488 13.63 3.42188 13.1034 3.42188Z" fill="#576FB4"></path>
          <path d="M17.1025 15.946V15.0051C17.1025 14.4785 16.6756 14.0516 16.1489 14.0516H14.4527C14.25 14.0516 14.0526 13.987 13.8891 13.8672L13.2463 13.3963C13.042 13.2153 13.0494 13.0208 13.0494 12.7478V10.833C13.0494 10.3063 12.6225 9.87939 12.0958 9.87939H9.26412C8.73748 9.87939 8.31055 10.3063 8.31055 10.833V12.973C8.31055 13.4996 8.73748 13.9265 9.26412 13.9265H12.1965C12.3671 13.9265 12.5345 13.9723 12.6813 14.059L13.2945 14.5012L13.3963 14.5914C13.6007 14.7724 13.7176 15.0323 13.7176 15.3052V15.946C13.7176 16.4726 14.1446 16.8996 14.6712 16.8996H16.1489C16.6756 16.8996 17.1025 16.4726 17.1025 15.946Z" fill="#576FB4"></path>
          <path fill-rule="evenodd" clip-rule="evenodd" d="M10.9121 9.87793H9.26217C8.73552 9.87793 8.30859 10.3049 8.30859 10.8315V12.9715C8.30859 12.9915 8.30921 13.0113 8.31041 13.0309H9.57709C10.3144 13.0309 10.9121 12.4332 10.9121 11.6959V10.3157V9.87793Z" fill="#16417D"></path>
          <path fill-rule="evenodd" clip-rule="evenodd" d="M4.5 8.45908H5.42255C5.9492 8.45908 6.37612 8.03215 6.37612 7.50551V7.33594H5.81829C5.15308 7.33594 4.60151 7.82246 4.5 8.45908Z" fill="#9DA5D4"></path>
      </g>
      <path d="M20.9444 7.708C20.9444 7.164 21.0698 6.676 21.3204 6.244C21.5764 5.812 21.9204 5.476 22.3524 5.236C22.7898 4.99067 23.2671 4.868 23.7844 4.868C24.3764 4.868 24.9018 5.01467 25.3604 5.308C25.8244 5.596 26.1604 6.00667 26.3684 6.54H25.2724C25.1284 6.24667 24.9284 6.028 24.6724 5.884C24.4164 5.74 24.1204 5.668 23.7844 5.668C23.4164 5.668 23.0884 5.75067 22.8004 5.916C22.5124 6.08133 22.2858 6.31867 22.1204 6.628C21.9604 6.93733 21.8804 7.29733 21.8804 7.708C21.8804 8.11867 21.9604 8.47867 22.1204 8.788C22.2858 9.09733 22.5124 9.33733 22.8004 9.508C23.0884 9.67333 23.4164 9.756 23.7844 9.756C24.1204 9.756 24.4164 9.684 24.6724 9.54C24.9284 9.396 25.1284 9.17733 25.2724 8.884H26.3684C26.1604 9.41733 25.8244 9.828 25.3604 10.116C24.9018 10.404 24.3764 10.548 23.7844 10.548C23.2618 10.548 22.7844 10.428 22.3524 10.188C21.9204 9.94267 21.5764 9.604 21.3204 9.172C21.0698 8.74 20.9444 8.252 20.9444 7.708ZM29.9159 6.02C30.2519 6.02 30.5506 6.092 30.8119 6.236C31.0786 6.38 31.2866 6.59333 31.4359 6.876C31.5906 7.15867 31.6679 7.5 31.6679 7.9V10.5H30.7639V8.036C30.7639 7.64133 30.6653 7.34 30.4679 7.132C30.2706 6.91867 30.0013 6.812 29.6599 6.812C29.3186 6.812 29.0466 6.91867 28.8439 7.132C28.6466 7.34 28.5479 7.64133 28.5479 8.036V10.5H27.6359V4.58H28.5479V6.604C28.7026 6.41733 28.8973 6.27333 29.1319 6.172C29.3719 6.07067 29.6333 6.02 29.9159 6.02ZM34.9432 10.572C34.5272 10.572 34.1512 10.4787 33.8152 10.292C33.4792 10.1 33.2152 9.83333 33.0232 9.492C32.8312 9.14533 32.7352 8.74533 32.7352 8.292C32.7352 7.844 32.8339 7.44667 33.0312 7.1C33.2286 6.75333 33.4979 6.48667 33.8392 6.3C34.1806 6.11333 34.5619 6.02 34.9832 6.02C35.4046 6.02 35.7859 6.11333 36.1272 6.3C36.4686 6.48667 36.7379 6.75333 36.9352 7.1C37.1326 7.44667 37.2312 7.844 37.2312 8.292C37.2312 8.74 37.1299 9.13733 36.9272 9.484C36.7246 9.83067 36.4472 10.1 36.0952 10.292C35.7486 10.4787 35.3646 10.572 34.9432 10.572ZM34.9432 9.78C35.1779 9.78 35.3966 9.724 35.5992 9.612C35.8072 9.5 35.9752 9.332 36.1032 9.108C36.2312 8.884 36.2952 8.612 36.2952 8.292C36.2952 7.972 36.2339 7.70267 36.1112 7.484C35.9886 7.26 35.8259 7.092 35.6232 6.98C35.4206 6.868 35.2019 6.812 34.9672 6.812C34.7326 6.812 34.5139 6.868 34.3112 6.98C34.1139 7.092 33.9566 7.26 33.8392 7.484C33.7219 7.70267 33.6632 7.972 33.6632 8.292C33.6632 8.76667 33.7832 9.13467 34.0232 9.396C34.2686 9.652 34.5752 9.78 34.9432 9.78ZM39.2448 6.732C39.3781 6.508 39.5541 6.33467 39.7728 6.212C39.9968 6.084 40.2608 6.02 40.5648 6.02V6.964H40.3328C39.9755 6.964 39.7035 7.05467 39.5168 7.236C39.3355 7.41733 39.2448 7.732 39.2448 8.18V10.5H38.3328V6.092H39.2448V6.732ZM45.5951 6.092V10.5H44.6831V9.98C44.5391 10.1613 44.3498 10.3053 44.1151 10.412C43.8858 10.5133 43.6405 10.564 43.3791 10.564C43.0325 10.564 42.7205 10.492 42.4431 10.348C42.1711 10.204 41.9551 9.99067 41.7951 9.708C41.6405 9.42533 41.5631 9.084 41.5631 8.684V6.092H42.4671V8.548C42.4671 8.94267 42.5658 9.24667 42.7631 9.46C42.9605 9.668 43.2298 9.772 43.5711 9.772C43.9125 9.772 44.1818 9.668 44.3791 9.46C44.5818 9.24667 44.6831 8.94267 44.6831 8.548V6.092H45.5951ZM48.5984 10.572C48.2518 10.572 47.9398 10.5107 47.6624 10.388C47.3904 10.26 47.1744 10.0893 47.0144 9.876C46.8544 9.65733 46.7691 9.41467 46.7584 9.148H47.7024C47.7184 9.33467 47.8064 9.492 47.9664 9.62C48.1318 9.74267 48.3371 9.804 48.5824 9.804C48.8384 9.804 49.0358 9.756 49.1744 9.66C49.3184 9.55867 49.3904 9.43067 49.3904 9.276C49.3904 9.11067 49.3104 8.988 49.1504 8.908C48.9958 8.828 48.7478 8.74 48.4064 8.644C48.0758 8.55333 47.8064 8.46533 47.5984 8.38C47.3904 8.29467 47.2091 8.164 47.0544 7.988C46.9051 7.812 46.8304 7.58 46.8304 7.292C46.8304 7.05733 46.8998 6.844 47.0384 6.652C47.1771 6.45467 47.3744 6.3 47.6304 6.188C47.8918 6.076 48.1904 6.02 48.5264 6.02C49.0278 6.02 49.4304 6.148 49.7344 6.404C50.0438 6.65467 50.2091 6.99867 50.2304 7.436H49.3184C49.3024 7.23867 49.2224 7.08133 49.0784 6.964C48.9344 6.84667 48.7398 6.788 48.4944 6.788C48.2544 6.788 48.0704 6.83333 47.9424 6.924C47.8144 7.01467 47.7504 7.13467 47.7504 7.284C47.7504 7.40133 47.7931 7.5 47.8784 7.58C47.9638 7.66 48.0678 7.724 48.1904 7.772C48.3131 7.81467 48.4944 7.87067 48.7344 7.94C49.0544 8.02533 49.3158 8.11333 49.5184 8.204C49.7264 8.28933 49.9051 8.41733 50.0544 8.588C50.2038 8.75867 50.2811 8.98533 50.2864 9.268C50.2864 9.51867 50.2171 9.74267 50.0784 9.94C49.9398 10.1373 49.7424 10.292 49.4864 10.404C49.2358 10.516 48.9398 10.572 48.5984 10.572Z" fill="#222529"></path>
      <path d="M45.1334 12.6973C45.0766 13.027 44.9155 13.3018 44.6502 13.5216C44.3849 13.7376 44.0229 13.8457 43.5644 13.8457H42.8026L42.5069 15.5H41.9896L42.6945 11.5375H43.9737C44.3678 11.5375 44.6635 11.6228 44.8605 11.7934C45.0576 11.9601 45.1562 12.1837 45.1562 12.4642C45.1562 12.5135 45.1486 12.5912 45.1334 12.6973ZM43.6383 13.4363C43.9225 13.4363 44.1442 13.3719 44.3034 13.2431C44.4626 13.1104 44.563 12.9285 44.6047 12.6973C44.6161 12.6291 44.6218 12.5665 44.6218 12.5097C44.6218 12.1345 44.3811 11.9469 43.8998 11.9469H43.138L42.8765 13.4363H43.6383ZM46.3904 12.9759C46.5155 12.7712 46.6727 12.612 46.8622 12.4983C47.0517 12.3846 47.2678 12.3278 47.5103 12.3278L47.4137 12.8622H47.2772C47.0082 12.8622 46.7826 12.9342 46.6007 13.0782C46.4226 13.2222 46.3032 13.4648 46.2426 13.8059L45.9413 15.5H45.4239L45.9754 12.3846H46.4927L46.3904 12.9759ZM49.0569 15.5512C48.7954 15.5512 48.5642 15.4981 48.3633 15.392C48.1663 15.2821 48.0128 15.1305 47.9029 14.9372C47.7929 14.7401 47.738 14.5127 47.738 14.255C47.738 13.9025 47.8195 13.5804 47.9825 13.2885C48.1454 12.9929 48.369 12.7598 48.6533 12.5893C48.9413 12.4187 49.2616 12.3334 49.614 12.3334C49.8756 12.3334 50.1067 12.3884 50.3076 12.4983C50.5123 12.6044 50.6696 12.756 50.7795 12.9531C50.8932 13.1464 50.95 13.3738 50.95 13.6353C50.95 13.9878 50.8666 14.3099 50.6999 14.6018C50.5331 14.8936 50.3057 15.1248 50.0177 15.2953C49.7296 15.4659 49.4094 15.5512 49.0569 15.5512ZM49.1195 15.1134C49.3658 15.1134 49.5875 15.0471 49.7846 14.9144C49.9817 14.778 50.1352 14.5999 50.2451 14.3801C50.3588 14.1564 50.4156 13.9177 50.4156 13.6637C50.4156 13.3757 50.3323 13.1559 50.1655 13.0043C49.9987 12.8489 49.7903 12.7712 49.5401 12.7712C49.2938 12.7712 49.074 12.8394 48.8807 12.9759C48.6874 13.1085 48.5377 13.2866 48.4316 13.5102C48.3254 13.7339 48.2724 13.9745 48.2724 14.2322C48.2724 14.5127 48.352 14.7306 48.5112 14.886C48.6703 15.0376 48.8731 15.1134 49.1195 15.1134Z" fill="#222529"></path>
      <defs>
          <clipPath id="clip0_3990_1736">
              <rect width="14.5536" height="14.5536" fill="white" transform="translate(3.06348 2.72314)"></rect>
          </clipPath>
      </defs>
    </symbol>


    <symbol viewBox="0 0 66 20" id="icon-virement">
      <path d="M17.3051 15.227H17.0779V14.5452C17.0779 14.4849 17.0539 14.4271 17.0113 14.3845C16.9687 14.3418 16.9109 14.3179 16.8506 14.3179H16.6233V8.86335H16.8506C16.9109 8.86335 16.9687 8.83941 17.0113 8.79678C17.0539 8.75416 17.0779 8.69636 17.0779 8.63608V7.72699C17.0789 7.72021 17.0789 7.71331 17.0779 7.70653C17.0798 7.69144 17.0798 7.67617 17.0779 7.66108L17.0642 7.62244L17.0392 7.58835C17.0304 7.57542 17.0197 7.56392 17.0074 7.55426L16.9938 7.54062L11.0847 3.44972C11.0466 3.42332 11.0014 3.40918 10.9551 3.40918C10.9088 3.40918 10.8636 3.42332 10.8256 3.44972L4.91649 7.54062L4.90286 7.55426C4.89057 7.56392 4.87983 7.57542 4.87104 7.58835L4.84604 7.62244L4.8324 7.66108C4.83048 7.67617 4.83048 7.69144 4.8324 7.70653C4.82168 7.71084 4.81227 7.7179 4.80513 7.72699V8.63608C4.80513 8.69636 4.82908 8.75416 4.8717 8.79678C4.91432 8.83941 4.97213 8.86335 5.0324 8.86335H5.25968V14.3179H5.0324C4.97213 14.3179 4.91432 14.3418 4.8717 14.3845C4.82908 14.4271 4.80513 14.4849 4.80513 14.5452V15.227H4.57786C4.51758 15.227 4.45977 15.2509 4.41715 15.2936C4.37453 15.3362 4.35059 15.394 4.35059 15.4543V16.3634C4.35059 16.4236 4.37453 16.4814 4.41715 16.5241C4.45977 16.5667 4.51758 16.5906 4.57786 16.5906H17.3051C17.3654 16.5906 17.4232 16.5667 17.4658 16.5241C17.5085 16.4814 17.5324 16.4236 17.5324 16.3634V15.4543C17.5324 15.394 17.5085 15.3362 17.4658 15.2936C17.4232 15.2509 17.3654 15.227 17.3051 15.227ZM16.1688 14.3179H15.7142V8.86335H16.1688V14.3179ZM13.4415 14.3179V8.86335H15.2597V14.3179H13.4415ZM9.80513 14.3179V8.86335H12.0779V14.3179H9.80513ZM6.62331 14.3179V8.86335H8.44149V14.3179H6.62331ZM8.89604 8.86335H9.35059V14.3179H8.89604V8.86335ZM12.5324 8.86335H12.9869V14.3179H12.5324V8.86335ZM16.6233 8.40881H5.25968V7.95426H16.6233V8.40881ZM10.9415 3.91335L16.1233 7.49971H5.75968L10.9415 3.91335ZM5.71422 8.86335H6.16877V14.3179H5.71422V8.86335ZM5.25968 14.7724H16.6233V15.227H5.25968V14.7724ZM17.0779 16.1361H4.80513V15.6815H17.0779V16.1361Z" fill="#222529"></path>
      <path d="M9.8054 6.81761H12.0781C12.1384 6.81761 12.1962 6.79367 12.2388 6.75104C12.2815 6.70842 12.3054 6.65061 12.3054 6.59034C12.3054 6.53006 12.2815 6.47225 12.2388 6.42963C12.1962 6.38701 12.1384 6.36306 12.0781 6.36306H11.819C11.7667 6.17048 11.6524 6.00047 11.4939 5.87926C11.3354 5.75805 11.1413 5.69238 10.9418 5.69238C10.7422 5.69238 10.5482 5.75805 10.3896 5.87926C10.2311 6.00047 10.1168 6.17048 10.0645 6.36306H9.8054C9.74512 6.36306 9.68731 6.38701 9.64469 6.42963C9.60207 6.47225 9.57812 6.53006 9.57812 6.59034C9.57812 6.65061 9.60207 6.70842 9.64469 6.75104C9.68731 6.79367 9.74512 6.81761 9.8054 6.81761ZM10.9418 6.13579C11.0211 6.13627 11.0989 6.1575 11.1675 6.19737C11.2361 6.23724 11.293 6.29437 11.3327 6.36306H10.5509C10.5905 6.29437 10.6475 6.23724 10.716 6.19737C10.7846 6.1575 10.8624 6.13627 10.9418 6.13579Z" fill="#222529"></path>
      <g clip-path="url(#clip0_3990_1756)">
          <path d="M28.8686 3.71295L26.7806 9.27295H25.7246L23.6286 3.71295H24.6046L26.2526 8.33695L27.9086 3.71295H28.8686ZM30.0953 4.28095C29.9299 4.28095 29.7913 4.22495 29.6793 4.11295C29.5673 4.00095 29.5113 3.86228 29.5113 3.69695C29.5113 3.53162 29.5673 3.39295 29.6793 3.28095C29.7913 3.16895 29.9299 3.11295 30.0953 3.11295C30.2553 3.11295 30.3913 3.16895 30.5033 3.28095C30.6153 3.39295 30.6713 3.53162 30.6713 3.69695C30.6713 3.86228 30.6153 4.00095 30.5033 4.11295C30.3913 4.22495 30.2553 4.28095 30.0953 4.28095ZM30.5433 4.86495V9.27295H29.6313V4.86495H30.5433ZM32.6526 5.50495C32.786 5.28095 32.962 5.10762 33.1806 4.98495C33.4046 4.85695 33.6686 4.79295 33.9726 4.79295V5.73695H33.7406C33.3833 5.73695 33.1113 5.82762 32.9246 6.00895C32.7433 6.19028 32.6526 6.50495 32.6526 6.95295V9.27295H31.7406V4.86495H32.6526V5.50495ZM38.8509 6.96095C38.8509 7.12628 38.8403 7.27562 38.8189 7.40895H35.4509C35.4776 7.76095 35.6083 8.04362 35.8429 8.25695C36.0776 8.47028 36.3656 8.57695 36.7069 8.57695C37.1976 8.57695 37.5443 8.37162 37.7469 7.96095H38.7309C38.5976 8.36628 38.3549 8.69962 38.0029 8.96095C37.6563 9.21695 37.2243 9.34495 36.7069 9.34495C36.2856 9.34495 35.9069 9.25162 35.5709 9.06495C35.2403 8.87295 34.9789 8.60628 34.7869 8.26495C34.6003 7.91828 34.5069 7.51828 34.5069 7.06495C34.5069 6.61162 34.5976 6.21428 34.7789 5.87295C34.9656 5.52628 35.2243 5.25962 35.5549 5.07295C35.8909 4.88628 36.2749 4.79295 36.7069 4.79295C37.1229 4.79295 37.4936 4.88362 37.8189 5.06495C38.1443 5.24628 38.3976 5.50228 38.5789 5.83295C38.7603 6.15828 38.8509 6.53428 38.8509 6.96095ZM37.8989 6.67295C37.8936 6.33695 37.7736 6.06762 37.5389 5.86495C37.3043 5.66228 37.0136 5.56095 36.6669 5.56095C36.3523 5.56095 36.0829 5.66228 35.8589 5.86495C35.6349 6.06228 35.5016 6.33162 35.4589 6.67295H37.8989ZM45.0844 4.79295C45.4311 4.79295 45.7404 4.86495 46.0124 5.00895C46.2898 5.15295 46.5058 5.36628 46.6604 5.64895C46.8204 5.93162 46.9004 6.27295 46.9004 6.67295V9.27295H45.9964V6.80895C45.9964 6.41428 45.8978 6.11295 45.7004 5.90495C45.5031 5.69162 45.2338 5.58495 44.8924 5.58495C44.5511 5.58495 44.2791 5.69162 44.0764 5.90495C43.8791 6.11295 43.7804 6.41428 43.7804 6.80895V9.27295H42.8764V6.80895C42.8764 6.41428 42.7778 6.11295 42.5804 5.90495C42.3831 5.69162 42.1138 5.58495 41.7724 5.58495C41.4311 5.58495 41.1591 5.69162 40.9564 5.90495C40.7591 6.11295 40.6604 6.41428 40.6604 6.80895V9.27295H39.7484V4.86495H40.6604V5.36895C40.8098 5.18762 40.9991 5.04628 41.2284 4.94495C41.4578 4.84362 41.7031 4.79295 41.9644 4.79295C42.3164 4.79295 42.6311 4.86762 42.9084 5.01695C43.1858 5.16628 43.3991 5.38228 43.5484 5.66495C43.6818 5.39828 43.8898 5.18762 44.1724 5.03295C44.4551 4.87295 44.7591 4.79295 45.0844 4.79295ZM52.1009 6.96095C52.1009 7.12628 52.0903 7.27562 52.0689 7.40895H48.7009C48.7276 7.76095 48.8583 8.04362 49.0929 8.25695C49.3276 8.47028 49.6156 8.57695 49.9569 8.57695C50.4476 8.57695 50.7943 8.37162 50.9969 7.96095H51.9809C51.8476 8.36628 51.6049 8.69962 51.2529 8.96095C50.9063 9.21695 50.4743 9.34495 49.9569 9.34495C49.5356 9.34495 49.1569 9.25162 48.8209 9.06495C48.4903 8.87295 48.2289 8.60628 48.0369 8.26495C47.8503 7.91828 47.7569 7.51828 47.7569 7.06495C47.7569 6.61162 47.8476 6.21428 48.0289 5.87295C48.2156 5.52628 48.4743 5.25962 48.8049 5.07295C49.1409 4.88628 49.5249 4.79295 49.9569 4.79295C50.3729 4.79295 50.7436 4.88362 51.0689 5.06495C51.3943 5.24628 51.6476 5.50228 51.8289 5.83295C52.0103 6.15828 52.1009 6.53428 52.1009 6.96095ZM51.1489 6.67295C51.1436 6.33695 51.0236 6.06762 50.7889 5.86495C50.5543 5.66228 50.2636 5.56095 49.9169 5.56095C49.6023 5.56095 49.3329 5.66228 49.1089 5.86495C48.8849 6.06228 48.7516 6.33162 48.7089 6.67295H51.1489ZM55.2224 4.79295C55.5691 4.79295 55.8784 4.86495 56.1504 5.00895C56.4278 5.15295 56.6438 5.36628 56.7984 5.64895C56.9531 5.93162 57.0304 6.27295 57.0304 6.67295V9.27295H56.1264V6.80895C56.1264 6.41428 56.0278 6.11295 55.8304 5.90495C55.6331 5.69162 55.3638 5.58495 55.0224 5.58495C54.6811 5.58495 54.4091 5.69162 54.2064 5.90495C54.0091 6.11295 53.9104 6.41428 53.9104 6.80895V9.27295H52.9984V4.86495H53.9104V5.36895C54.0598 5.18762 54.2491 5.04628 54.4784 4.94495C54.7131 4.84362 54.9611 4.79295 55.2224 4.79295ZM59.2578 5.60895V8.04895C59.2578 8.21428 59.2951 8.33428 59.3698 8.40895C59.4498 8.47828 59.5831 8.51295 59.7698 8.51295H60.3298V9.27295H59.6098C59.1991 9.27295 58.8844 9.17695 58.6658 8.98495C58.4471 8.79295 58.3378 8.48095 58.3378 8.04895V5.60895H57.8178V4.86495H58.3378V3.76895H59.2578V4.86495H60.3298V5.60895H59.2578Z" fill="#222529"></path>
          <path d="M24.9886 12.9751C25.1432 12.7617 25.3539 12.5884 25.6206 12.4551C25.8926 12.3164 26.1939 12.2471 26.5246 12.2471C26.9139 12.2471 27.2659 12.3404 27.5806 12.5271C27.8952 12.7137 28.1432 12.9804 28.3246 13.3271C28.5059 13.6684 28.5966 14.0604 28.5966 14.5031C28.5966 14.9457 28.5059 15.3431 28.3246 15.6951C28.1432 16.0417 27.8926 16.3137 27.5726 16.5111C27.2579 16.7031 26.9086 16.7991 26.5246 16.7991C26.1832 16.7991 25.8792 16.7324 25.6126 16.5991C25.3512 16.4657 25.1432 16.2951 24.9886 16.0871V16.7271H24.0766V10.8071H24.9886V12.9751ZM27.6686 14.5031C27.6686 14.1991 27.6046 13.9377 27.4766 13.7191C27.3539 13.4951 27.1886 13.3271 26.9806 13.2151C26.7779 13.0977 26.5592 13.0391 26.3246 13.0391C26.0952 13.0391 25.8766 13.0977 25.6686 13.2151C25.4659 13.3324 25.3006 13.5031 25.1726 13.7271C25.0499 13.9511 24.9886 14.2151 24.9886 14.5191C24.9886 14.8231 25.0499 15.0897 25.1726 15.3191C25.3006 15.5431 25.4659 15.7137 25.6686 15.8311C25.8766 15.9484 26.0952 16.0071 26.3246 16.0071C26.5592 16.0071 26.7779 15.9484 26.9806 15.8311C27.1886 15.7084 27.3539 15.5324 27.4766 15.3031C27.6046 15.0737 27.6686 14.8071 27.6686 14.5031ZM29.1944 14.5031C29.1944 14.0604 29.2851 13.6684 29.4664 13.3271C29.6531 12.9857 29.9038 12.7217 30.2184 12.5351C30.5384 12.3431 30.8904 12.2471 31.2744 12.2471C31.6211 12.2471 31.9224 12.3164 32.1784 12.4551C32.4398 12.5884 32.6478 12.7564 32.8024 12.9591V12.3191H33.7224V16.7271H32.8024V16.0711C32.6478 16.2791 32.4371 16.4524 32.1704 16.5911C31.9038 16.7297 31.5998 16.7991 31.2584 16.7991C30.8798 16.7991 30.5331 16.7031 30.2184 16.5111C29.9038 16.3137 29.6531 16.0417 29.4664 15.6951C29.2851 15.3431 29.1944 14.9457 29.1944 14.5031ZM32.8024 14.5191C32.8024 14.2151 32.7384 13.9511 32.6104 13.7271C32.4878 13.5031 32.3251 13.3324 32.1224 13.2151C31.9198 13.0977 31.7011 13.0391 31.4664 13.0391C31.2318 13.0391 31.0131 13.0977 30.8104 13.2151C30.6078 13.3271 30.4424 13.4951 30.3144 13.7191C30.1918 13.9377 30.1304 14.1991 30.1304 14.5031C30.1304 14.8071 30.1918 15.0737 30.3144 15.3031C30.4424 15.5324 30.6078 15.7084 30.8104 15.8311C31.0184 15.9484 31.2371 16.0071 31.4664 16.0071C31.7011 16.0071 31.9198 15.9484 32.1224 15.8311C32.3251 15.7137 32.4878 15.5431 32.6104 15.3191C32.7384 15.0897 32.8024 14.8231 32.8024 14.5191ZM37.1443 12.2471C37.491 12.2471 37.8003 12.3191 38.0723 12.4631C38.3496 12.6071 38.5656 12.8204 38.7203 13.1031C38.875 13.3857 38.9523 13.7271 38.9523 14.1271V16.7271H38.0483V14.2631C38.0483 13.8684 37.9496 13.5671 37.7523 13.3591C37.555 13.1457 37.2856 13.0391 36.9443 13.0391C36.603 13.0391 36.331 13.1457 36.1283 13.3591C35.931 13.5671 35.8323 13.8684 35.8323 14.2631V16.7271H34.9203V12.3191H35.8323V12.8231C35.9816 12.6417 36.171 12.5004 36.4003 12.3991C36.635 12.2977 36.883 12.2471 37.1443 12.2471ZM39.8116 14.5191C39.8116 14.0657 39.9023 13.6684 40.0836 13.3271C40.2703 12.9804 40.5263 12.7137 40.8516 12.5271C41.177 12.3404 41.5503 12.2471 41.9716 12.2471C42.505 12.2471 42.945 12.3751 43.2916 12.6311C43.6436 12.8817 43.881 13.2417 44.0036 13.7111H43.0196C42.9396 13.4924 42.8116 13.3217 42.6356 13.1991C42.4596 13.0764 42.2383 13.0151 41.9716 13.0151C41.5983 13.0151 41.2996 13.1484 41.0756 13.4151C40.857 13.6764 40.7476 14.0444 40.7476 14.5191C40.7476 14.9937 40.857 15.3644 41.0756 15.6311C41.2996 15.8977 41.5983 16.0311 41.9716 16.0311C42.4996 16.0311 42.849 15.7991 43.0196 15.3351H44.0036C43.8756 15.7831 43.6356 16.1404 43.2836 16.4071C42.9316 16.6684 42.4943 16.7991 41.9716 16.7991C41.5503 16.7991 41.177 16.7057 40.8516 16.5191C40.5263 16.3271 40.2703 16.0604 40.0836 15.7191C39.9023 15.3724 39.8116 14.9724 39.8116 14.5191ZM44.6085 14.5031C44.6085 14.0604 44.6992 13.6684 44.8805 13.3271C45.0672 12.9857 45.3178 12.7217 45.6325 12.5351C45.9525 12.3431 46.3045 12.2471 46.6885 12.2471C47.0352 12.2471 47.3365 12.3164 47.5925 12.4551C47.8538 12.5884 48.0618 12.7564 48.2165 12.9591V12.3191H49.1365V16.7271H48.2165V16.0711C48.0618 16.2791 47.8512 16.4524 47.5845 16.5911C47.3178 16.7297 47.0138 16.7991 46.6725 16.7991C46.2938 16.7991 45.9472 16.7031 45.6325 16.5111C45.3178 16.3137 45.0672 16.0417 44.8805 15.6951C44.6992 15.3431 44.6085 14.9457 44.6085 14.5031ZM48.2165 14.5191C48.2165 14.2151 48.1525 13.9511 48.0245 13.7271C47.9018 13.5031 47.7392 13.3324 47.5365 13.2151C47.3338 13.0977 47.1152 13.0391 46.8805 13.0391C46.6458 13.0391 46.4272 13.0977 46.2245 13.2151C46.0218 13.3271 45.8565 13.4951 45.7285 13.7191C45.6058 13.9377 45.5445 14.1991 45.5445 14.5031C45.5445 14.8071 45.6058 15.0737 45.7285 15.3031C45.8565 15.5324 46.0218 15.7084 46.2245 15.8311C46.4325 15.9484 46.6512 16.0071 46.8805 16.0071C47.1152 16.0071 47.3338 15.9484 47.5365 15.8311C47.7392 15.7137 47.9018 15.5431 48.0245 15.3191C48.1525 15.0897 48.2165 14.8231 48.2165 14.5191ZM50.7984 11.7351C50.633 11.7351 50.4944 11.6791 50.3824 11.5671C50.2704 11.4551 50.2144 11.3164 50.2144 11.1511C50.2144 10.9857 50.2704 10.8471 50.3824 10.7351C50.4944 10.6231 50.633 10.5671 50.7984 10.5671C50.9584 10.5671 51.0944 10.6231 51.2064 10.7351C51.3184 10.8471 51.3744 10.9857 51.3744 11.1511C51.3744 11.3164 51.3184 11.4551 51.2064 11.5671C51.0944 11.6791 50.9584 11.7351 50.7984 11.7351ZM51.2464 12.3191V16.7271H50.3344V12.3191H51.2464ZM53.3558 12.9591C53.4891 12.7351 53.6651 12.5617 53.8838 12.4391C54.1078 12.3111 54.3718 12.2471 54.6758 12.2471V13.1911H54.4438C54.0864 13.1911 53.8144 13.2817 53.6278 13.4631C53.4464 13.6444 53.3558 13.9591 53.3558 14.4071V16.7271H52.4438V12.3191H53.3558V12.9591ZM59.5541 14.4151C59.5541 14.5804 59.5434 14.7297 59.5221 14.8631H56.1541C56.1807 15.2151 56.3114 15.4977 56.5461 15.7111C56.7807 15.9244 57.0687 16.0311 57.4101 16.0311C57.9007 16.0311 58.2474 15.8257 58.4501 15.4151H59.4341C59.3007 15.8204 59.0581 16.1537 58.7061 16.4151C58.3594 16.6711 57.9274 16.7991 57.4101 16.7991C56.9887 16.7991 56.6101 16.7057 56.2741 16.5191C55.9434 16.3271 55.6821 16.0604 55.4901 15.7191C55.3034 15.3724 55.2101 14.9724 55.2101 14.5191C55.2101 14.0657 55.3007 13.6684 55.4821 13.3271C55.6687 12.9804 55.9274 12.7137 56.2581 12.5271C56.5941 12.3404 56.9781 12.2471 57.4101 12.2471C57.8261 12.2471 58.1967 12.3377 58.5221 12.5191C58.8474 12.7004 59.1007 12.9564 59.2821 13.2871C59.4634 13.6124 59.5541 13.9884 59.5541 14.4151ZM58.6021 14.1271C58.5967 13.7911 58.4767 13.5217 58.2421 13.3191C58.0074 13.1164 57.7167 13.0151 57.3701 13.0151C57.0554 13.0151 56.7861 13.1164 56.5621 13.3191C56.3381 13.5164 56.2047 13.7857 56.1621 14.1271H58.6021Z" fill="#222529"></path>
      </g>
      <defs>
          <clipPath id="clip0_3990_1756">
              <rect width="38" height="20" fill="white" transform="translate(23.4766)"></rect>
          </clipPath>
      </defs>
    </symbol>


    <symbol id="icon-moyen-paiement" viewBox="0 0 163 80.9" fill="none">
        <g transform="translate(252.3 -356.1)">
            <path fill="none" stroke="currentColor" stroke-miterlimit="10" stroke-width="2" d="M-108.9 404.1v30c0 1.1-.9 2-2 2H-231c-1.1 0-2-.9-2-2v-75c0-1.1.9-2 2-2h120.1c1.1 0 2 .9 2 2v37m-124.1-29h124.1"/>
            <circle cx="-227.8" cy="361.9" r="1.8" fill="currentColor"/>
            <circle cx="-222.2" cy="361.9" r="1.8" fill="currentColor"/>
            <circle cx="-216.6" cy="361.9" r="1.8" fill="currentColor"/>
            <path fill="none" stroke="currentColor" stroke-miterlimit="10" stroke-width="2" d="M-128.7 400.1H-92m-3.6-4.1 4 4.1-4 4.1"/>
        </g>
  </symbol>
</svg>